<svg width="17" height="16" viewBox="0 0 17 16" fill="none" xmlns="http://www.w3.org/2000/svg">
<path d="M6.28546 3.33345C6.28546 3.63989 6.34274 3.94332 6.45403 4.22643C6.56532 4.50953 6.72844 4.76677 6.93407 4.98345C7.13971 5.20013 7.38384 5.37201 7.65251 5.48928C7.92119 5.60655 8.20915 5.6669 8.49997 5.6669C8.79078 5.6669 9.07875 5.60655 9.34742 5.48928C9.6161 5.37201 9.86023 5.20013 10.0659 4.98345C10.2715 4.76677 10.4346 4.50953 10.5459 4.22642C10.6572 3.94332 10.7145 3.63988 10.7145 3.33345C10.7145 3.02702 10.6572 2.72359 10.5459 2.44048C10.4346 2.15737 10.2715 1.90013 10.0659 1.68345C9.86023 1.46677 9.6161 1.29489 9.34742 1.17762C9.07875 1.06036 8.79078 1 8.49997 1C8.20915 1 7.92119 1.06036 7.65251 1.17762C7.38383 1.29489 7.13971 1.46677 6.93407 1.68345C6.72844 1.90013 6.56532 2.15737 6.45403 2.44048C6.34274 2.72359 6.28546 3.02702 6.28546 3.33345L6.28546 3.33345Z" stroke="white" stroke-width="2"/>
<path d="M2.91784 9.47944C2.66599 9.63266 2.44524 9.83664 2.26821 10.0798C2.09117 10.3229 1.96131 10.6003 1.88604 10.8963C1.81078 11.1923 1.79157 11.501 1.82953 11.8048C1.86749 12.1087 1.96187 12.4016 2.10727 12.667C2.25268 12.9324 2.44627 13.165 2.67699 13.3515C2.90771 13.5381 3.17103 13.6749 3.45194 13.7542C3.73284 13.8335 4.02582 13.8538 4.31415 13.8138C4.60247 13.7738 4.8805 13.6743 5.13235 13.5211C5.3842 13.3679 5.60495 13.1639 5.78198 12.9208C5.95902 12.6777 6.08888 12.4002 6.16415 12.1042C6.23941 11.8082 6.25862 11.4995 6.22066 11.1957C6.1827 10.8919 6.08832 10.5989 5.94292 10.3335C5.79751 10.0682 5.60392 9.83556 5.3732 9.64901C5.14248 9.46247 4.87916 9.32564 4.59825 9.24633C4.31735 9.16701 4.02437 9.14678 3.73604 9.18678C3.44772 9.22678 3.16969 9.32622 2.91784 9.47944L2.91784 9.47944Z" stroke="white" stroke-width="2"/>
<path d="M14.0822 9.47944C14.334 9.63266 14.5548 9.83664 14.7318 10.0798C14.9088 10.3229 15.0387 10.6003 15.114 10.8963C15.1892 11.1923 15.2084 11.501 15.1705 11.8048C15.1325 12.1087 15.0381 12.4016 14.8927 12.667C14.7473 12.9324 14.5537 13.165 14.323 13.3515C14.0923 13.5381 13.829 13.6749 13.5481 13.7542C13.2672 13.8335 12.9742 13.8538 12.6859 13.8138C12.3975 13.7738 12.1195 13.6743 11.8676 13.5211C11.6158 13.3679 11.3951 13.1639 11.218 12.9208C11.041 12.6777 10.9111 12.4002 10.8359 12.1042C10.7606 11.8082 10.7414 11.4995 10.7793 11.1957C10.8173 10.8919 10.9117 10.5989 11.0571 10.3335C11.2025 10.0682 11.3961 9.83556 11.6268 9.64901C11.8575 9.46247 12.1208 9.32564 12.4017 9.24633C12.6827 9.16701 12.9756 9.14678 13.264 9.18678C13.5523 9.22678 13.8303 9.32622 14.0822 9.47944L14.0822 9.47944Z" stroke="white" stroke-width="2"/>
<path fill-rule="evenodd" clip-rule="evenodd" d="M6.39575 4.06118C6.32276 3.82674 6.2854 3.58122 6.2854 3.33375C6.2854 3.02731 6.34268 2.72388 6.45397 2.44078C6.55219 2.1909 6.6908 1.96117 6.86338 1.7617C6.51467 1.85064 6.1725 1.96804 5.84006 2.11314C4.99861 2.4804 4.23755 3.01719 3.59889 3.69015C2.96033 4.363 2.4564 5.15899 2.11345 6.03142C1.77052 6.90378 1.5946 7.8371 1.5946 8.77853C1.5946 9.48937 1.6949 10.1956 1.89166 10.8744C1.96771 10.5867 2.09547 10.317 2.26809 10.08C2.44513 9.83688 2.66588 9.63289 2.91773 9.47967C3.13307 9.34867 3.36755 9.25697 3.61124 9.20814C3.60018 9.06551 3.5946 8.92219 3.5946 8.77853C3.5946 8.08564 3.72418 7.40066 3.9748 6.76311C4.22539 6.12563 4.59142 5.54968 5.04959 5.0669C5.4438 4.65152 5.89939 4.31225 6.39575 4.06118ZM10.6041 4.06113C11.1005 4.3122 11.5561 4.65149 11.9503 5.0669C12.4085 5.54968 12.7745 6.12562 13.0251 6.76311C13.2757 7.40065 13.4053 8.08564 13.4053 8.77852C13.4053 8.92219 13.3998 9.06552 13.3887 9.20816C13.6323 9.257 13.8668 9.34869 14.0821 9.47967C14.3339 9.63289 14.5547 9.83688 14.7317 10.08C14.9044 10.3171 15.0322 10.5869 15.1082 10.8747C15.305 10.1957 15.4053 9.48944 15.4053 8.77852C15.4053 7.8371 15.2294 6.90377 14.8865 6.03141C14.5435 5.15899 14.0396 4.363 13.401 3.69014C12.7624 3.01718 12.0013 2.4804 11.1599 2.11314C10.8274 1.96802 10.4852 1.85061 10.1364 1.76166C10.309 1.96114 10.4476 2.19088 10.5458 2.44077C10.6571 2.72388 10.7144 3.02731 10.7144 3.33375C10.7144 3.5812 10.6771 3.82671 10.6041 4.06113ZM13.4918 13.7695C13.2281 13.8362 12.9549 13.8513 12.6858 13.814C12.3975 13.774 12.1194 13.6745 11.8676 13.5213C11.6621 13.3963 11.4773 13.2375 11.3201 13.0512C11.0206 13.2753 10.6985 13.4631 10.3598 13.6109C9.76848 13.869 9.13666 14.0011 8.49996 14.0011C7.86326 14.0011 7.23145 13.869 6.6401 13.6109C6.30139 13.4631 5.97926 13.2753 5.67977 13.0512C5.52253 13.2375 5.33774 13.3963 5.13224 13.5213C4.88039 13.6745 4.60236 13.774 4.31403 13.814C4.04495 13.8513 3.7718 13.8362 3.50821 13.7695C3.53813 13.8023 3.56836 13.8347 3.59889 13.8669C4.23755 14.5399 4.99861 15.0766 5.84006 15.4439C6.68166 15.8112 7.58566 16.0011 8.49996 16.0011C9.41427 16.0011 10.3183 15.8112 11.1599 15.4439C12.0013 15.0766 12.7624 14.5399 13.401 13.8669C13.4316 13.8347 13.4618 13.8022 13.4918 13.7695Z" fill="white"/>
</svg>
