<svg width="17" height="17" viewBox="0 0 17 17" fill="none" xmlns="http://www.w3.org/2000/svg">
<path d="M14.8982 10.8316C14.438 11.8742 13.7181 12.7929 12.8015 13.5074C11.8849 14.2219 10.7996 14.7105 9.64033 14.9305C8.48108 15.1504 7.28324 15.0949 6.15153 14.769C5.01982 14.4431 3.98869 13.8565 3.1483 13.0607C2.30791 12.2649 1.68384 11.284 1.33066 10.2037C0.97747 9.12351 0.905923 7.97686 1.12227 6.86403C1.33861 5.7512 1.83626 4.70607 2.57171 3.82003C3.30716 2.93398 4.25801 2.23399 5.34113 1.78125" stroke="white" stroke-width="2" stroke-linecap="round" stroke-linejoin="round"/>
<path d="M15.7158 8.03125C15.7158 7.10789 15.5255 6.19358 15.1557 5.34051C14.7859 4.48744 14.244 3.71232 13.5607 3.05941C12.8775 2.40649 12.0663 1.88858 11.1736 1.53522C10.281 1.18187 9.32416 1 8.35791 1V8.03125H15.7158Z" stroke="white" stroke-width="2" stroke-linecap="round" stroke-linejoin="round"/>
</svg>
