<svg width="17" height="16" viewBox="0 0 17 16" fill="none" xmlns="http://www.w3.org/2000/svg">
<path d="M1 1H2.59523C3.02298 1 3.23685 1 3.4163 1.07211C3.58655 1.14052 3.73469 1.25445 3.84452 1.40143C3.96028 1.55636 4.01519 1.76306 4.125 2.17647L4.26865 2.71725C4.35092 3.027 4.39206 3.18188 4.4485 3.31418C4.72237 3.95617 5.31112 4.40895 6.0019 4.50883C6.14426 4.52941 6.30451 4.52941 6.625 4.52941V4.52941" stroke="white" stroke-width="2" stroke-linecap="round"/>
<path d="M14.125 12.4705H4.2799C3.59443 12.4705 3.11518 11.7924 3.34402 11.1463V11.1463C3.62482 10.3534 4.37468 9.82349 5.21577 9.82349H10.375" stroke="white" stroke-width="2" stroke-linecap="round" stroke-linejoin="round"/>
<path d="M10.7831 9.82341H7.35136C6.47545 9.82341 6.0375 9.82341 5.6765 9.67728C5.28631 9.51933 4.95591 9.2423 4.73234 8.88563C4.5255 8.55564 4.44913 8.1244 4.2964 7.2619C4.13897 6.37291 4.06026 5.92842 4.17114 5.57744C4.29069 5.19901 4.55534 4.88338 4.90712 4.69968C5.23339 4.5293 5.6848 4.5293 6.58762 4.5293H12.6728C14.159 4.5293 14.9021 4.5293 15.1935 5.01411C15.4849 5.49891 15.1363 6.15514 14.439 7.46761L14.3155 7.70003C13.766 8.73449 13.4912 9.25172 13.0157 9.53756C12.5401 9.82341 11.9544 9.82341 10.7831 9.82341Z" stroke="white" stroke-width="2" stroke-linecap="round"/>
<ellipse cx="13.1875" cy="15.1177" rx="0.9375" ry="0.882353" fill="white"/>
<ellipse cx="5.6875" cy="15.1177" rx="0.9375" ry="0.882353" fill="white"/>
</svg>
