<svg width="17" height="17" viewBox="0 0 17 17" fill="none" xmlns="http://www.w3.org/2000/svg">
<path d="M1 7.5335C1 6.41339 1 5.85334 1.21799 5.42552C1.40973 5.04919 1.71569 4.74323 2.09202 4.55148C2.51984 4.3335 3.0799 4.3335 4.2 4.3335H5.18264C5.71354 4.3335 5.97898 4.3335 6.22624 4.39771C6.44536 4.45461 6.65323 4.5483 6.84099 4.6748C7.05285 4.81753 7.22865 5.01641 7.58025 5.41418L8.48225 6.43463C8.83385 6.8324 9.00965 7.03129 9.22151 7.17402C9.40927 7.30051 9.61714 7.3942 9.83626 7.4511C10.0835 7.51531 10.349 7.51531 10.8799 7.51531H12.8C13.9201 7.51531 14.4802 7.51531 14.908 7.7333C15.2843 7.92505 15.5903 8.23101 15.782 8.60733C16 9.03516 16 9.59521 16 10.7153V12.8002C16 13.9203 16 14.4803 15.782 14.9081C15.5903 15.2845 15.2843 15.5904 14.908 15.7822C14.4802 16.0002 13.9201 16.0002 12.8 16.0002H4.2C3.07989 16.0002 2.51984 16.0002 2.09202 15.7822C1.71569 15.5904 1.40973 15.2845 1.21799 14.9081C1 14.4803 1 13.9203 1 12.8002V7.5335Z" stroke="white" stroke-width="2"/>
<path d="M14 6V2.66667L11.25 1H6.2C5.07989 1 4.51984 1 4.09202 1.21799C3.71569 1.40973 3.40973 1.71569 3.21799 2.09202C3 2.51984 3 3.07989 3 4.2V4.33333" stroke="white" stroke-width="2" stroke-linejoin="round"/>
<path d="M10 1V2.73333C10 3.29339 10 3.57341 10.109 3.78732C10.2049 3.97549 10.3578 4.12847 10.546 4.22434C10.7599 4.33333 11.0399 4.33333 11.6 4.33333H14" stroke="white" stroke-width="2" stroke-linejoin="round"/>
</svg>
