<svg width="15" height="16" viewBox="0 0 15 16" fill="none" xmlns="http://www.w3.org/2000/svg">
<path d="M12 13.5976H3V15.1974H1.5V13.5976H0.75C0.551088 13.5976 0.360322 13.5134 0.21967 13.3634C0.0790176 13.2134 0 13.0099 0 12.7978V0.799861C0 0.587725 0.0790176 0.384277 0.21967 0.234274C0.360322 0.0842708 0.551088 0 0.75 0H14.25C14.4489 0 14.6397 0.0842708 14.7803 0.234274C14.921 0.384277 15 0.587725 15 0.799861V12.7978C15 13.0099 14.921 13.2134 14.7803 13.3634C14.6397 13.5134 14.4489 13.5976 14.25 13.5976H13.5V15.1974H12V13.5976ZM6.75 8.69769V11.1981H8.25V8.69769C8.95537 8.50114 9.56954 8.03752 9.97785 7.39338C10.3862 6.74925 10.5607 5.96864 10.4688 5.19732C10.377 4.426 10.025 3.7167 9.47871 3.20187C8.93239 2.68703 8.22904 2.40185 7.5 2.39958C6.7693 2.39881 6.06346 2.68248 5.51496 3.19735C4.96645 3.71221 4.613 4.42287 4.52094 5.19594C4.42888 5.969 4.60454 6.75133 5.01496 7.39607C5.42537 8.04081 6.04232 8.50364 6.75 8.69769V8.69769ZM7.5 7.19875C7.10218 7.19875 6.72064 7.03021 6.43934 6.73021C6.15804 6.4302 6 6.0233 6 5.59903C6 5.17476 6.15804 4.76786 6.43934 4.46786C6.72064 4.16785 7.10218 3.99931 7.5 3.99931C7.89782 3.99931 8.27936 4.16785 8.56066 4.46786C8.84196 4.76786 9 5.17476 9 5.59903C9 6.0233 8.84196 6.4302 8.56066 6.73021C8.27936 7.03021 7.89782 7.19875 7.5 7.19875Z" fill="white"/>
</svg>
