<svg width="30" height="30" viewBox="0 0 30 30" fill="none" xmlns="http://www.w3.org/2000/svg">
<g clip-path="url(#clip0_1_47)">
<path d="M30.0001 15.345C30.0001 14.3254 29.9158 13.3003 29.7359 12.2972H15.3023V18.0732H23.5677C23.2248 19.9361 22.1227 21.584 20.509 22.6312V26.379H25.4401C28.3358 23.7666 30.0001 19.9085 30.0001 15.345Z" fill="#4285F4"/>
<path d="M15.3018 30C19.4289 30 22.9093 28.6717 25.4452 26.379L20.514 22.6312C19.1421 23.5461 17.371 24.0641 15.3074 24.0641C11.3153 24.0641 7.93042 21.4241 6.71591 17.8748H1.62736V21.7383C4.22505 26.8033 9.51602 30 15.3018 30Z" fill="#34A853"/>
<path d="M6.71076 17.8747C6.06977 16.0118 6.06977 13.9947 6.71076 12.1318V8.26823H1.62782C-0.542541 12.5066 -0.543008 17.5 1.62736 21.7383L6.71076 17.8747Z" fill="#FBBC04"/>
<path d="M15.3018 5.93687C17.4834 5.9038 19.5919 6.70848 21.1719 8.18555L25.5407 3.90314C22.7744 1.35683 19.1027 -0.043081 15.3018 0.0010108C9.51602 0.0010108 4.22552 3.19767 1.62782 8.26823L6.71076 12.1318C7.91964 8.57687 11.3097 5.93687 15.3018 5.93687Z" fill="#EA4335"/>
</g>
<defs>
<clipPath id="clip0_1_47">
<rect width="30" height="30" fill="white"/>
</clipPath>
</defs>
</svg>
