<svg width="24" height="24" viewBox="0 0 24 24" fill="none" xmlns="http://www.w3.org/2000/svg">
<path d="M5.70375 11.0719C5.5725 10.5047 5.41125 9.51562 5.41125 9.51562H5.3925C5.3925 9.51562 5.23125 10.5047 5.1 11.0719L4.68375 12.8297H6.1125L5.70375 11.0719ZM23.1 4.5H12.6V19.5H23.1C23.5988 19.5 24 18.9984 24 18.375V5.625C24 5.00156 23.5988 4.5 23.1 4.5ZM22.2 10.125C22.2 10.4344 21.9975 10.6875 21.75 10.6875H21.3225C21.0637 11.7937 20.5088 12.9094 19.7213 13.9641C20.0363 14.2641 20.3625 14.55 20.7 14.8078C20.9062 14.9672 20.9737 15.3 20.8538 15.5672L20.5575 16.2188C20.43 16.4953 20.1488 16.5844 19.9313 16.4203C19.4588 16.0547 19.0125 15.6656 18.6038 15.2531C18.195 15.6609 17.7525 16.0547 17.2763 16.4203C17.0588 16.5844 16.7775 16.4953 16.65 16.2188L16.3538 15.5672C16.2338 15.3047 16.3013 14.9672 16.5112 14.8078C16.86 14.5406 17.1863 14.2594 17.49 13.9641C17.1938 13.5703 16.9312 13.1672 16.7025 12.7594C16.5525 12.4922 16.62 12.1219 16.8413 11.9578L17.085 11.775L17.3588 11.5734C17.5613 11.4234 17.8237 11.4938 17.9587 11.7328C18.1462 12.0609 18.3638 12.3891 18.6112 12.7125C19.1175 12.0469 19.5037 11.3578 19.7362 10.6875H15.45C15.2025 10.6875 15 10.4344 15 10.125V9.375C15 9.06563 15.2025 8.8125 15.45 8.8125H17.85V8.0625C17.85 7.75312 18.0525 7.5 18.3 7.5H18.9C19.1475 7.5 19.35 7.75312 19.35 8.0625V8.8125H21.75C21.9975 8.8125 22.2 9.06563 22.2 9.375V10.125ZM0 5.625V18.375C0 18.9984 0.40125 19.5 0.9 19.5H11.4V4.5H0.9C0.40125 4.5 0 5.00156 0 5.625ZM2.20875 15.7547L4.365 7.82812C4.42875 7.59844 4.5975 7.44844 4.7925 7.44844H6.01125C6.2025 7.44844 6.375 7.60313 6.43875 7.82812L8.595 15.7547C8.6925 16.1203 8.47875 16.5 8.1675 16.5H7.30875C7.2117 16.4999 7.11728 16.4606 7.03956 16.388C6.96184 16.3153 6.905 16.2132 6.8775 16.0969L6.525 14.6016H4.2675L3.92625 16.0922C3.87 16.3312 3.69375 16.5 3.495 16.5H2.63625C2.32875 16.5 2.11125 16.1203 2.20875 15.7547Z" fill="#2C394C"/>
</svg>
