<svg width="15" height="16" viewBox="0 0 15 16" fill="none" xmlns="http://www.w3.org/2000/svg">
<path d="M10.8333 4.94737V4.33334C10.8333 2.49239 9.34091 1 7.49996 1V1C5.65901 1 4.16663 2.49239 4.16663 4.33333V4.94737" stroke="white" stroke-width="2" stroke-linecap="round"/>
<path fill-rule="evenodd" clip-rule="evenodd" d="M0.431951 5.60705C0 6.32232 0 7.29258 0 9.23309C0 11.8204 0 13.1141 0.575935 14.0678C0.911338 14.6232 1.37681 15.0887 1.9322 15.4241C2.8859 16 4.17957 16 6.76692 16H8.23308C10.8204 16 12.1141 16 13.0678 15.4241C13.6232 15.0887 14.0887 14.6232 14.4241 14.0678C15 13.1141 15 11.8204 15 9.23309C15 7.29258 15 6.32232 14.568 5.60705C14.3165 5.19051 13.9674 4.8414 13.5508 4.58985C12.8356 4.1579 11.8653 4.1579 9.92481 4.1579H5.07519C3.13468 4.1579 2.16442 4.1579 1.44915 4.58985C1.03261 4.8414 0.683504 5.19051 0.431951 5.60705ZM7.89228 9.90709C7.97533 9.82841 8 9.74998 8 9.68427C8 9.61857 7.97533 9.54013 7.89228 9.46145C7.80734 9.38098 7.67312 9.31585 7.5 9.31585C7.32688 9.31585 7.19266 9.38098 7.10772 9.46145C7.02467 9.54013 7 9.61857 7 9.68427C7 9.74998 7.02467 9.82841 7.10772 9.90709C7.19266 9.98756 7.32688 10.0527 7.5 10.0527C7.67312 10.0527 7.80734 9.98756 7.89228 9.90709ZM10 9.68427C10 10.6555 9.38295 11.4901 8.5 11.8556V13.6316H6.5V11.8556C5.61705 11.4901 5 10.6555 5 9.68427C5 8.37623 6.11929 7.31585 7.5 7.31585C8.88071 7.31585 10 8.37623 10 9.68427Z" fill="white"/>
</svg>
