<svg width="15" height="15" viewBox="0 0 15 15" fill="none" xmlns="http://www.w3.org/2000/svg">
<path fill-rule="evenodd" clip-rule="evenodd" d="M0.00729647 4.4484C0 4.91247 0 5.42724 0 6V9C0 11.8284 0 13.2426 0.87868 14.1213C1.75736 15 3.17157 15 6 15H9C11.8284 15 13.2426 15 14.1213 14.1213C15 13.2426 15 11.8284 15 9V6C15 5.42724 15 4.91247 14.9927 4.4484L8.66248 8.96999C7.96708 9.4667 7.03292 9.4667 6.33752 8.96999L0.00729647 4.4484ZM0.192786 2.2328C0.328683 2.2594 0.461207 2.31482 0.581238 2.40055L7.5 7.34252L14.4188 2.40055C14.5388 2.31482 14.6713 2.25941 14.8072 2.2328C14.6804 1.66046 14.47 1.2274 14.1213 0.87868C13.2426 0 11.8284 0 9 0H6C3.17157 0 1.75736 0 0.87868 0.87868C0.529963 1.2274 0.319639 1.66046 0.192786 2.2328Z" fill="white"/>
</svg>
