<svg width="30" height="30" viewBox="0 0 30 30" fill="none" xmlns="http://www.w3.org/2000/svg">
<path d="M9.4344 26.8766C20.7552 26.8766 26.9472 17.4974 26.9472 9.36376C26.9472 9.09736 26.9472 8.83216 26.9292 8.56816C28.1338 7.69685 29.1736 6.61802 30 5.38216C28.8767 5.88016 27.685 6.2066 26.4648 6.35056C27.7498 5.58142 28.7114 4.37154 29.1708 2.94616C27.9626 3.66317 26.6408 4.16844 25.2624 4.44016C24.3344 3.45338 23.107 2.79996 21.7702 2.58102C20.4335 2.36207 19.0618 2.5898 17.8675 3.22898C16.6731 3.86815 15.7228 4.88313 15.1634 6.11685C14.6041 7.35056 14.4669 8.73424 14.7732 10.0538C12.3261 9.93101 9.9322 9.29505 7.74682 8.18717C5.56144 7.07928 3.63345 5.52424 2.088 3.62296C1.30091 4.97795 1.05984 6.582 1.41387 8.10849C1.76791 9.63498 2.69043 10.9692 3.9936 11.8394C3.01404 11.8107 2.05581 11.5464 1.2 11.069V11.147C1.20039 12.568 1.69231 13.9452 2.59234 15.0449C3.49236 16.1446 4.74508 16.8992 6.138 17.1806C5.23185 17.4277 4.28109 17.4639 3.3588 17.2862C3.75227 18.5091 4.51804 19.5785 5.54905 20.3448C6.58006 21.1112 7.82478 21.5363 9.1092 21.5606C7.83305 22.5637 6.37164 23.3053 4.80859 23.7431C3.24554 24.1808 1.61152 24.3061 0 24.1118C2.81479 25.918 6.08991 26.8762 9.4344 26.8718" fill="#1DA1F2"/>
</svg>
